<svg xmlns="http://www.w3.org/2000/svg" viewBox="0 0 512 512">
  <defs>
    <linearGradient id="grad1" x1="0%" y1="0%" x2="100%" y2="100%">
      <stop offset="0%" style="stop-color:#b3125a;stop-opacity:1" />
      <stop offset="100%" style="stop-color:#e85d4e;stop-opacity:1" />
    </linearGradient>
  </defs>
  <!-- Simple Link Icon Path -->
  <path fill="url(#grad1)" d="M326.612 185.391c59.747 59.809 58.927 155.698.36 214.59-.11.12-.24.25-.36.37l-67.2 67.2c-59.27 59.27-155.699 59.262-214.96 0-59.27-59.26-59.27-155.7 0-214.96l37.106-37.106c9.84-9.84 26.786-3.3 27.294 10.606.648 17.722 3.826 35.527 9.69 52.721 1.986 5.822.567 12.262-3.783 16.612l-13.087 13.087c-28.026 28.026-28.905 73.66-1.155 101.96 28.024 28.579 74.086 28.749 102.325.51l67.2-67.19c28.191-28.191 28.073-73.757-.52-102.317-8.612-8.611-12.798-16.775-19.304-24.134-5.69-6.965-6.126-16.48-1.55-23.362 11.237-16.736 10.612-14.707 16.142-26.685 5.385-11.75 22.828-19.167 33.784-18.72l27.975-27.973c15.65-15.65 41.05-15.65 56.7 0zm191.95-174.55C459.29 51.57 362.86 51.58 303.6 110.84l-37.106 37.106c-9.84 9.84-26.786 3.3-27.294-10.606-.648-17.722-3.826-35.527-9.69-52.721-1.986-5.822-.567-12.262 3.783-16.612l13.087-13.087c28.026-28.026 28.905-73.66 1.155-101.96-28.024-28.579-74.086-28.749-102.325-.51l-67.2 67.19c-28.191 28.191-28.073 73.757.52 102.317 8.612 8.611 12.798 16.775 19.304 24.134 5.69 6.965 6.126 16.48 1.55 23.362-11.237 16.736-10.612 14.707-16.142 26.685-5.385 11.75-22.828 19.167-33.784 18.72l-27.975 27.973c-15.65 15.65-41.05 15.65-56.7 0-59.747-59.809-58.927-155.698-.36-214.59.11-.12.24-.25.36-.37l67.2-67.2c59.27-59.27 155.699-59.262 214.96 0z" />
</svg>
